<?xml version="1.0" encoding="UTF-8" standalone="no"?>
<!-- Generator: Adobe Illustrator 18.0.0, SVG Export Plug-In . SVG Version: 6.00 Build 0)  -->

<svg
   xmlns:dc="http://purl.org/dc/elements/1.1/"
   xmlns:cc="http://creativecommons.org/ns#"
   xmlns:rdf="http://www.w3.org/1999/02/22-rdf-syntax-ns#"
   xmlns:svg="http://www.w3.org/2000/svg"
   xmlns="http://www.w3.org/2000/svg"
   xmlns:sodipodi="http://sodipodi.sourceforge.net/DTD/sodipodi-0.dtd"
   xmlns:inkscape="http://www.inkscape.org/namespaces/inkscape"
   version="1.1"
   id="Capa_1"
   x="0px"
   y="0px"
   viewBox="0 0 54 54"
   style="enable-background:new 0 0 54 54;"
   xml:space="preserve"
   sodipodi:docname="destroy.svg"
   inkscape:version="0.92.4 (5da689c313, 2019-01-14)"><metadata
   id="metadata47"><rdf:RDF><cc:Work
       rdf:about=""><dc:format>image/svg+xml</dc:format><dc:type
         rdf:resource="http://purl.org/dc/dcmitype/StillImage" /><dc:title></dc:title></cc:Work></rdf:RDF></metadata><defs
   id="defs45" /><sodipodi:namedview
   pagecolor="#ffffff"
   bordercolor="#666666"
   borderopacity="1"
   objecttolerance="10"
   gridtolerance="10"
   guidetolerance="10"
   inkscape:pageopacity="0"
   inkscape:pageshadow="2"
   inkscape:window-width="786"
   inkscape:window-height="480"
   id="namedview43"
   showgrid="false"
   inkscape:zoom="4.3703704"
   inkscape:cx="-9.7564058"
   inkscape:cy="26.842051"
   inkscape:window-x="70"
   inkscape:window-y="27"
   inkscape:window-maximized="0"
   inkscape:current-layer="g1438" />

<g
   id="g12">
</g>
<g
   id="g14">
</g>
<g
   id="g16">
</g>
<g
   id="g18">
</g>
<g
   id="g20">
</g>
<g
   id="g22">
</g>
<g
   id="g24">
</g>
<g
   id="g26">
</g>
<g
   id="g28">
</g>
<g
   id="g30">
</g>
<g
   id="g32">
</g>
<g
   id="g34">
</g>
<g
   id="g36">
</g>
<g
   id="g38">
</g>
<g
   id="g40">
</g>
<g
   id="g1438"
   transform="matrix(0.09625639,0,0,0.09625639,8.6202576,1.6709077)"><circle
     style="fill:#ff0000;fill-opacity:1;stroke:none;stroke-width:9.96724224"
     id="path1475"
     cx="193.32281"
     cy="263.14194"
     r="275.95746" /><path
     id="path1418"
     d="M 248.60668,79.812457 H 218.58761 V 34.783865 H 158.54949 V 79.812457 H 128.53044 V 4.7648021 h 120.07624 z m 0,0"
     inkscape:connector-curvature="0"
     style="fill:#62808c;stroke-width:0.93809569" /><path
     id="path1420"
     d="M 293.63528,485.06981 H 83.501847 c -24.866862,0 -45.028592,-20.16174 -45.028592,-45.02861 V 124.84106 H 338.66386 V 440.0412 c 0,24.86687 -20.16172,45.02861 -45.02858,45.02861 z m 0,0"
     inkscape:connector-curvature="0"
     style="fill:#000000;stroke-width:0.93809569" /><path
     id="path1422"
     d="M 368.68293,154.86012 H 8.4541932 V 94.821988 c 0,-16.577914 13.4411468,-30.019062 30.0190618,-30.019062 H 338.66386 c 16.57791,0 30.01907,13.441148 30.01907,30.019062 z m 0,0"
     inkscape:connector-curvature="0"
     style="fill:#77959e;stroke-width:0.93809569" /><path
     id="path1424"
     d="m 252.35906,248.66969 c -5.85943,-5.85943 -15.36131,-5.85943 -21.22441,0 l -38.81372,38.81371 -38.8137,-38.81371 c -5.86309,-5.85943 -15.36498,-5.85943 -21.22442,0 -5.85943,5.85943 -5.85943,15.36131 0,21.22441 l 38.81372,38.81371 -38.81372,38.81371 c -5.85943,5.8631 -5.85943,15.36498 0,21.22441 5.85944,5.85943 15.36133,5.85943 21.22442,0 l 38.8137,-38.81371 38.81372,38.81371 c 5.8631,5.85943 15.36498,5.85943 21.22441,0 5.85943,-5.85943 5.85943,-15.36131 0,-21.22441 l -38.81371,-38.81371 38.81371,-38.81371 c 5.85943,-5.8631 5.85943,-15.36498 0,-21.22441 z m 0,0"
     inkscape:connector-curvature="0"
     style="fill:#ffffff;stroke-width:0.93809569" /></g></svg>