<?xml version="1.0" encoding="UTF-8" standalone="no"?>
<!-- Created with Inkscape (http://www.inkscape.org/) -->

<svg
   xmlns:dc="http://purl.org/dc/elements/1.1/"
   xmlns:cc="http://creativecommons.org/ns#"
   xmlns:rdf="http://www.w3.org/1999/02/22-rdf-syntax-ns#"
   xmlns:svg="http://www.w3.org/2000/svg"
   xmlns="http://www.w3.org/2000/svg"
   xmlns:sodipodi="http://sodipodi.sourceforge.net/DTD/sodipodi-0.dtd"
   xmlns:inkscape="http://www.inkscape.org/namespaces/inkscape"
   width="55px"
   height="55px"
   viewBox="0 0 55 55"
   version="1.1"
   id="SVGRoot"
   inkscape:version="0.92.4 (5da689c313, 2019-01-14)"
   sodipodi:docname="prato.svg">
  <defs
     id="defs3714" />
  <sodipodi:namedview
     id="base"
     pagecolor="#ffffff"
     bordercolor="#666666"
     borderopacity="1.0"
     inkscape:pageopacity="0.0"
     inkscape:pageshadow="2"
     inkscape:zoom="3.2912607"
     inkscape:cx="47.095244"
     inkscape:cy="41.474692"
     inkscape:document-units="px"
     inkscape:current-layer="layer1"
     showgrid="false"
     inkscape:window-width="671"
     inkscape:window-height="416"
     inkscape:window-x="531"
     inkscape:window-y="153"
     inkscape:window-maximized="0" />
  <metadata
     id="metadata3717">
    <rdf:RDF>
      <cc:Work
         rdf:about="">
        <dc:format>image/svg+xml</dc:format>
        <dc:type
           rdf:resource="http://purl.org/dc/dcmitype/StillImage" />
        <dc:title></dc:title>
      </cc:Work>
    </rdf:RDF>
  </metadata>
  <g
     inkscape:label="Camada 1"
     inkscape:groupmode="layer"
     id="layer1">
    <circle
       style="fill:#008080;stroke-width:1.08055651"
       id="path3742"
       cx="27.559765"
       cy="27.535936"
       r="27.509871" />
    <g
       transform="matrix(0.12361957,0,0,0.12361957,5.4853651,2.3272934)"
       id="g14"
       style="fill:#ffffff">
      <path
         inkscape:connector-curvature="0"
         style="fill:#ffffff"
         d="m 37.6,228.6 c 0,2.8 2.4,5.2 5.2,5.2 h 264 c 2.8,0 5.2,-2.4 5.2,-5.2 0,-62 -41.2,-114.4 -98,-131.6 V 96.6 C 214,75 196.4,57.4 174.8,57.4 153.2,57.4 135.6,75 135.6,96.6 V 97 c -56.4,17.2 -98,69.6 -98,131.6 z M 48,223.4 c 0,-4 0.4,-8 1.2,-12 h 251.2 c 0.4,4 0.8,8 1.2,12 z M 174.8,67.8 c 15.2,0 27.6,12 28.8,26.8 -9.2,-2 -18.8,-3.2 -28.8,-3.2 -10,0 -19.6,1.2 -28.8,3.2 1.2,-14.8 13.6,-26.8 28.8,-26.8 z m 0,34 c 60.4,0 111.2,42.4 123.6,99.2 H 51.2 c 12.4,-56.4 63.2,-99.2 123.6,-99.2 z"
         id="path10" />
      <path
         inkscape:connector-curvature="0"
         style="fill:#ffffff"
         d="M 326.4,246.2 H 23.2 C 10.4,246.2 0,256.6 0,269.4 c 0,12.8 10.4,23.2 23.2,23.2 h 303.6 c 12.8,0 23.2,-10.4 23.2,-23.2 -0.4,-12.8 -10.8,-23.2 -23.6,-23.2 z m 0,36 H 23.2 c -7.2,0 -12.8,-5.6 -12.8,-12.8 0,-7.2 5.6,-12.8 12.8,-12.8 h 303.6 c 7.2,0 12.8,5.6 12.8,12.8 -0.4,7.2 -6,12.8 -13.2,12.8 z"
         id="path12" />
    </g>
  </g>
</svg>
