<?xml version="1.0" encoding="UTF-8" standalone="no"?>
<!-- Created with Inkscape (http://www.inkscape.org/) -->

<svg
   xmlns:dc="http://purl.org/dc/elements/1.1/"
   xmlns:cc="http://creativecommons.org/ns#"
   xmlns:rdf="http://www.w3.org/1999/02/22-rdf-syntax-ns#"
   xmlns:svg="http://www.w3.org/2000/svg"
   xmlns="http://www.w3.org/2000/svg"
   xmlns:sodipodi="http://sodipodi.sourceforge.net/DTD/sodipodi-0.dtd"
   xmlns:inkscape="http://www.inkscape.org/namespaces/inkscape"
   width="55px"
   height="55px"
   viewBox="0 0 55 55"
   version="1.1"
   id="SVGRoot"
   inkscape:version="0.92.4 (5da689c313, 2019-01-14)"
   sodipodi:docname="menu.svg">
  <defs
     id="defs3714" />
  <sodipodi:namedview
     id="base"
     pagecolor="#ffffff"
     bordercolor="#666666"
     borderopacity="1.0"
     inkscape:pageopacity="0.0"
     inkscape:pageshadow="2"
     inkscape:zoom="4.6545455"
     inkscape:cx="31.31528"
     inkscape:cy="29.739657"
     inkscape:document-units="px"
     inkscape:current-layer="layer1"
     showgrid="false"
     inkscape:window-width="1296"
     inkscape:window-height="704"
     inkscape:window-x="70"
     inkscape:window-y="27"
     inkscape:window-maximized="1" />
  <metadata
     id="metadata3717">
    <rdf:RDF>
      <cc:Work
         rdf:about="">
        <dc:format>image/svg+xml</dc:format>
        <dc:type
           rdf:resource="http://purl.org/dc/dcmitype/StillImage" />
        <dc:title></dc:title>
      </cc:Work>
    </rdf:RDF>
  </metadata>
  <g
     inkscape:label="Camada 1"
     inkscape:groupmode="layer"
     id="layer1">
    <circle
       style="fill:#0000ff;stroke-width:1.08055651"
       id="path3742"
       cx="27.559765"
       cy="27.535936"
       r="27.509871" />
    <path
       inkscape:connector-curvature="0"
       d="M 40.371368,5.625232 H 15.487997 c -1.654585,0 -3.000292,1.345615 -3.000292,2.999559 l 0.02135,35.954614 c 0,0.701478 0.487869,1.310534 1.173314,1.461676 l 20.708296,4.587276 c 0.443074,0.09829 0.906848,-0.01026 1.261344,-0.293487 0.353579,-0.284605 0.559772,-0.71467 0.559772,-1.168095 v -3.498513 h 4.159595 c 1.654586,0 3.000294,-1.345707 3.000294,-2.99956 V 8.624791 c 0,-1.653944 -1.345708,-2.999559 -3.000294,-2.999559 z m -9.197733,21.668999 -14.1123,-3.5575 c -0.431256,-0.108728 -0.733358,-0.496476 -0.733358,-0.941199 v -4.668163 c 0,-0.632226 0.594857,-1.095726 1.207942,-0.941195 l 14.1123,3.557502 c 0.431257,0.108729 0.733356,0.496565 0.733356,0.941198 v 4.668158 c -9.2e-5,0.63223 -0.594948,1.09573 -1.20794,0.941199 z M 36.211682,42.66394 V 13.200345 c 0,-0.711739 -0.500416,-1.325098 -1.197315,-1.467539 l -15.173221,-3.103252 20.525092,-0.0048 0.0015,34.038048 z m 4.159686,-0.0013 h 0.0015"
       id="path2"
       style="fill:#ffffff;stroke-width:0.09160085" />
  </g>
</svg>
