<?xml version="1.0" encoding="UTF-8" standalone="no"?>
<!-- Created with Inkscape (http://www.inkscape.org/) -->

<svg
   xmlns:dc="http://purl.org/dc/elements/1.1/"
   xmlns:cc="http://creativecommons.org/ns#"
   xmlns:rdf="http://www.w3.org/1999/02/22-rdf-syntax-ns#"
   xmlns:svg="http://www.w3.org/2000/svg"
   xmlns="http://www.w3.org/2000/svg"
   xmlns:sodipodi="http://sodipodi.sourceforge.net/DTD/sodipodi-0.dtd"
   xmlns:inkscape="http://www.inkscape.org/namespaces/inkscape"
   width="55px"
   height="55px"
   viewBox="0 0 55 55"
   version="1.1"
   id="SVGRoot"
   inkscape:version="0.92.4 (5da689c313, 2019-01-14)"
   sodipodi:docname="order.svg">
  <defs
     id="defs3714">
    <inkscape:perspective
       sodipodi:type="inkscape:persp3d"
       inkscape:vp_x="0 : 27.5 : 1"
       inkscape:vp_y="0 : 1000 : 0"
       inkscape:vp_z="55 : 27.5 : 1"
       inkscape:persp3d-origin="27.5 : 18.333333 : 1"
       id="perspective309" />
  </defs>
  <sodipodi:namedview
     id="base"
     pagecolor="#ffffff"
     bordercolor="#666666"
     borderopacity="1.0"
     inkscape:pageopacity="0.0"
     inkscape:pageshadow="2"
     inkscape:zoom="2.3272728"
     inkscape:cx="-25.09742"
     inkscape:cy="12.337889"
     inkscape:document-units="px"
     inkscape:current-layer="layer1"
     showgrid="false"
     inkscape:window-width="671"
     inkscape:window-height="416"
     inkscape:window-x="495"
     inkscape:window-y="197"
     inkscape:window-maximized="0" />
  <metadata
     id="metadata3717">
    <rdf:RDF>
      <cc:Work
         rdf:about="">
        <dc:format>image/svg+xml</dc:format>
        <dc:type
           rdf:resource="http://purl.org/dc/dcmitype/StillImage" />
        <dc:title></dc:title>
      </cc:Work>
    </rdf:RDF>
  </metadata>
  <g
     inkscape:label="Camada 1"
     inkscape:groupmode="layer"
     id="layer1">
    <circle
       style="fill:#ff0000;stroke-width:1.08055651"
       id="path3742"
       cx="27.559765"
       cy="27.535936"
       r="27.509871" />
    <path
       style="stroke-width:0.67394614;fill:#ffffff"
       inkscape:connector-curvature="0"
       d="M 43.456535,21.409966 V 7.931043 c 0,-0.7433661 -0.604532,-1.3478933 -1.347891,-1.3478933 H 17.846581 c -0.743362,0 -1.347892,0.6045272 -1.347892,1.3478933 V 8.3259715 L 15.348261,7.1755454 C 14.966804,6.7934179 14.458655,6.5831461 13.918149,6.5831461 c -2.292764,0 -4.1589225,1.8661578 -4.1589225,4.1595959 0,0.539833 0.210277,1.047986 0.5923985,1.429441 l 0.476482,0.476479 -0.394926,0.39493 c -0.4346945,0.434697 -0.6739455,1.012944 -0.6739455,1.626908 0,0.613964 0.239251,1.192211 0.6739455,1.626904 l 3.763987,3.764664 c 0.434698,0.434697 1.01227,0.673948 1.627585,0.673948 0.233193,0 0.457606,-0.04516 0.673945,-0.1112 v 18.307749 h -5.391567 c -0.743366,0 -1.3478955,0.604529 -1.3478955,1.34789 v 2.695781 c 0,2.972781 2.4187915,5.391571 5.3915675,5.391571 h 22.914172 c 2.972776,0 5.391567,-2.41879 5.391567,-5.391571 v -6.739459 c -7e-6,-14.826814 0,0 -7e-6,-14.826814 z M 13.918149,7.931043 c 0.179953,0 0.349768,0.070096 0.477156,0.1974624 l 5.194099,5.1941046 -3.090715,3.090716 -5.194104,-5.194102 c -0.125352,-0.126028 -0.197443,-0.299232 -0.197443,-0.476482 0,-1.5507487 1.260952,-2.8117002 2.811029,-2.8117002 z m 16.059463,5.7865 -4.04368,4.043678 -4.043671,-4.043678 v -1.742825 h 8.087351 z m -12.525963,3.648745 3.090716,-3.090718 7.658726,7.658725 c 0.05054,0.05054 0.09366,0.105126 0.142209,0.156349 l -3.075891,3.075891 c -0.0519,-0.04853 -0.10649,-0.09165 -0.156349,-0.142209 z m 6.705763,8.611683 c 1.400462,1.399787 3.2619,2.171454 5.241952,2.171454 h 0.578248 v 5.391572 h -8.087351 v -8.087358 h 1.742825 z m 5.8202,0.823564 h -0.578248 c -1.085727,0 -2.124949,-0.289801 -3.039493,-0.821539 l 2.7962,-2.796206 c 0.53242,0.914547 0.821541,1.953771 0.821541,3.04017 z m -1.742824,-6.739464 -1.347891,-1.347891 3.090715,-3.090719 v 4.43861 z M 15.150794,19.109113 11.38681,15.344448 c -0.180631,-0.180614 -0.279706,-0.419193 -0.279706,-0.673947 0,-0.254752 0.09908,-0.493326 0.279027,-0.673947 l 0.394927,-0.394929 5.112557,5.112556 -0.394926,0.394932 c -0.359893,0.360558 -0.988006,0.360558 -1.347895,0 z m 0,27.910805 c -2.230084,0 -4.043671,-1.813592 -4.043671,-4.04368 v -2.695781 h 21.566272 v 2.695781 c 0,1.608712 0.70832,3.054998 1.829093,4.04368 z m 26.95785,-4.04368 c 0,2.230088 -1.813592,4.04368 -4.043678,4.04368 -2.230088,0 -4.043677,-1.813592 -4.043677,-4.04368 v -2.695781 c 0,-0.74336 -0.604533,-1.347892 -1.347894,-1.347892 H 17.846581 V 19.667141 l 4.438609,4.438608 h -1.742825 v 10.783136 h 10.783138 v -6.73946 -0.673945 -1.25152 c 0,-1.785956 -0.632161,-3.472169 -1.782588,-4.813994 h 1.782588 V 14.27557 l 3.84621,-3.84621 -0.952961,-0.9529576 -2.893249,2.8932456 V 10.626826 H 20.542365 v 1.742822 L 17.846581,9.6738648 V 7.931043 h 24.262063 v 13.478923 c -0.02416,2.440245 0.06143,2.856823 0,14.826814 z m -4.043678,-8.087353 c -34.5680994,34.400732 -17.284051,17.200366 0,0 z"
       id="path2"
       sodipodi:nodetypes="cssssccsscccsccsccsssssscccccccsccccccccccscccccscccccccsccsccccccccscccccssccscssssssccccccccsccccccccccccccscc" />
  </g>
</svg>
