<?xml version="1.0" encoding="UTF-8" standalone="no"?>
<!-- Created with Inkscape (http://www.inkscape.org/) -->

<svg
   xmlns:dc="http://purl.org/dc/elements/1.1/"
   xmlns:cc="http://creativecommons.org/ns#"
   xmlns:rdf="http://www.w3.org/1999/02/22-rdf-syntax-ns#"
   xmlns:svg="http://www.w3.org/2000/svg"
   xmlns="http://www.w3.org/2000/svg"
   xmlns:sodipodi="http://sodipodi.sourceforge.net/DTD/sodipodi-0.dtd"
   xmlns:inkscape="http://www.inkscape.org/namespaces/inkscape"
   width="55px"
   height="55px"
   viewBox="0 0 55 55"
   version="1.1"
   id="SVGRoot"
   inkscape:version="0.92.4 (5da689c313, 2019-01-14)"
   sodipodi:docname="store.svg">
  <defs
     id="defs3714" />
  <sodipodi:namedview
     id="base"
     pagecolor="#ffffff"
     bordercolor="#666666"
     borderopacity="1.0"
     inkscape:pageopacity="0.0"
     inkscape:pageshadow="2"
     inkscape:zoom="3.2912607"
     inkscape:cx="91.105877"
     inkscape:cy="23.304212"
     inkscape:document-units="px"
     inkscape:current-layer="layer1"
     showgrid="false"
     inkscape:window-width="1296"
     inkscape:window-height="704"
     inkscape:window-x="70"
     inkscape:window-y="27"
     inkscape:window-maximized="1" />
  <metadata
     id="metadata3717">
    <rdf:RDF>
      <cc:Work
         rdf:about="">
        <dc:format>image/svg+xml</dc:format>
        <dc:type
           rdf:resource="http://purl.org/dc/dcmitype/StillImage" />
        <dc:title></dc:title>
      </cc:Work>
    </rdf:RDF>
  </metadata>
  <g
     inkscape:label="Camada 1"
     inkscape:groupmode="layer"
     id="layer1">
    <g
       id="g24"
       transform="matrix(0.08073341,0,0,0.08073341,7.849893,7.9258996)"
       style="fill:#ffffff">
      <path
         id="path10"
         d="m 376.5,288.51953 h -80.33203 c -8.28516,0 -15,6.71875 -15,15 v 81.01563 c 0,8.28125 6.71484,15 15,15 H 376.5 c 8.28516,0 15,-6.71875 15,-15 v -81.01563 c 0,-8.28125 -6.71484,-15 -15,-15 z m -15,81.01563 H 311.16797 V 318.51953 H 361.5 Z m 0,0"
         inkscape:connector-curvature="0"
         style="fill:#ffffff" />
      <path
         id="path12"
         d="M 511.42187,123.34766 490.32422,49.503906 C 482.39062,21.742188 453.56641,0 424.69922,0 H 87.300781 C 58.433594,0 29.609375,21.742188 21.675781,49.503906 L 0.578125,123.34766 C 0.195312,124.6875 0,126.07422 0,127.46875 v 48.19531 c 0,26.72656 16.679688,49.60938 40.167969,58.83985 v 190.19531 c 0,30.41797 24.746093,55.16797 55.167969,55.16797 H 416.66797 c 30.41797,0 55.16797,-24.75 55.16797,-55.16797 V 234.50391 C 495.32031,225.27344 512,202.39062 512,175.66406 v -48.19531 c 0,-1.39453 -0.19531,-2.78125 -0.57813,-4.12109 z M 50.523438,57.746094 C 54.746094,42.964844 71.929688,30 87.300781,30 H 424.69922 c 15.36719,0 32.55469,12.964844 36.77734,27.746094 l 15.63672,54.722656 H 34.886719 Z m 75.875002,84.722656 h 66.40234 v 33.19531 c 0,18.3086 -14.89453,33.20313 -33.20312,33.20313 -18.30469,0 -33.19922,-14.89453 -33.19922,-33.20313 z m 96.40234,0 h 66.39844 v 33.19531 c 0,18.3086 -14.89453,33.20313 -33.19922,33.20313 -18.30469,0 -33.19922,-14.89453 -33.19922,-33.20313 z m 96.39844,0 h 66.39844 v 33.19531 c 0,18.3086 -14.89063,33.20313 -33.19922,33.20313 -18.30469,0 -33.19922,-14.89453 -33.19922,-33.20313 z M 30,175.66406 v -33.19531 h 66.398438 v 33.19531 c 0,18.3086 -14.890626,33.20313 -33.199219,33.20313 C 44.894531,208.86719 30,193.97266 30,175.66406 Z m 120.5,274.20313 v -90.5 h 50.33594 v 90.5 z m 266.16797,0 H 230.83594 v -105.5 c 0,-8.28125 -6.71875,-15 -15,-15 H 135.5 c -8.28125,0 -15,6.71875 -15,15 v 105.5 H 95.335938 c -13.878907,0 -25.167969,-11.28907 -25.167969,-25.16797 V 238.47656 c 16.46875,-1.8164 31.046871,-9.98437 41.230471,-21.99609 11.60547,13.67969 28.89843,22.38672 48.19922,22.38672 19.30078,0 36.60156,-8.70703 48.20312,-22.38672 11.60156,13.67969 28.89844,22.38672 48.19922,22.38672 19.30078,0 36.59766,-8.70703 48.19922,-22.38672 11.60156,13.67969 28.89844,22.38672 48.19922,22.38672 19.30078,0 36.59765,-8.70703 48.19922,-22.38672 10.1875,12.01172 24.76562,20.17969 41.23437,21.99609 v 186.22266 c 0.004,13.8789 -11.28906,25.16797 -25.16406,25.16797 z m 32.13281,-241 c -18.30859,0 -33.19922,-14.89453 -33.19922,-33.19922 V 142.46875 H 482 v 33.19922 c 0,18.30469 -14.89453,33.19922 -33.19922,33.19922 z m 0,0"
         inkscape:connector-curvature="0"
         style="fill:#ffffff" />
    </g>
  </g>
</svg>
