<?xml version="1.0" encoding="UTF-8" standalone="no"?>
<svg
   xmlns:dc="http://purl.org/dc/elements/1.1/"
   xmlns:cc="http://creativecommons.org/ns#"
   xmlns:rdf="http://www.w3.org/1999/02/22-rdf-syntax-ns#"
   xmlns:svg="http://www.w3.org/2000/svg"
   xmlns="http://www.w3.org/2000/svg"
   xmlns:sodipodi="http://sodipodi.sourceforge.net/DTD/sodipodi-0.dtd"
   xmlns:inkscape="http://www.inkscape.org/namespaces/inkscape"
   id="Capa_1"
   enable-background="new 0 0 510 510"
   height="512"
   viewBox="0 0 510 510"
   width="512"
   version="1.1"
   sodipodi:docname="loading.svg"
   inkscape:version="0.92.4 (5da689c313, 2019-01-14)">
  <metadata
     id="metadata41">
    <rdf:RDF>
      <cc:Work
         rdf:about="">
        <dc:format>image/svg+xml</dc:format>
        <dc:type
           rdf:resource="http://purl.org/dc/dcmitype/StillImage" />
      </cc:Work>
    </rdf:RDF>
  </metadata>
  <defs
     id="defs39" />
  <sodipodi:namedview
     pagecolor="#ffffff"
     bordercolor="#666666"
     borderopacity="1"
     objecttolerance="10"
     gridtolerance="10"
     guidetolerance="10"
     inkscape:pageopacity="0"
     inkscape:pageshadow="2"
     inkscape:window-width="671"
     inkscape:window-height="480"
     id="namedview37"
     showgrid="false"
     inkscape:zoom="0.4609375"
     inkscape:cx="260.33898"
     inkscape:cy="246.23729"
     inkscape:window-x="70"
     inkscape:window-y="27"
     inkscape:window-maximized="0"
     inkscape:current-layer="Capa_1" />
  <circle
     cx="246.35593"
     cy="242.03391"
     r="138.30508"
     id="circle2"
     style="fill:#a5e887;stroke-width:0.54237288" />
  <path
     d="m 384.66102,242.0339 c 0,76.38237 -61.92272,138.30508 -138.30509,138.30508 V 103.72881 c 76.38237,0 138.30509,61.92272 138.30509,138.30509 z"
     id="path4"
     inkscape:connector-curvature="0"
     style="fill:#00cc76;stroke-width:0.54237288" />
  <circle
     cx="246.35593"
     cy="242.03391"
     r="93.098305"
     id="circle6"
     style="fill:#00cc76;stroke-width:0.54237288" />
  <path
     d="m 339.45424,242.0339 c 0,51.41694 -41.68136,93.0983 -93.09831,93.0983 V 148.93559 c 51.41695,0 93.09831,41.68136 93.09831,93.09831 z"
     id="path8"
     inkscape:connector-curvature="0"
     style="fill:#009959;stroke-width:0.54237288" />
  <path
     d="m 287.51661,207.45762 c 0,27.32475 -17.09017,50.65221 -41.16068,59.87797 -7.12677,2.73899 -14.86644,4.23594 -22.95322,4.23594 -35.41153,0 -64.11389,-28.70238 -64.11389,-64.11391 0,-35.41152 28.70236,-64.11389 64.11389,-64.11389 8.08678,0 15.82645,1.49694 22.95322,4.23593 24.07051,9.22576 41.16068,32.55322 41.16068,59.87796 z"
     id="path10"
     inkscape:connector-curvature="0"
     style="fill:#fff5f5;stroke-width:0.54237288" />
  <path
     d="m 287.51661,207.45762 c 0,27.32475 -17.09017,50.65221 -41.16068,59.87797 V 147.57966 c 24.07051,9.22576 41.16068,32.55322 41.16068,59.87796 z"
     id="path12"
     inkscape:connector-curvature="0"
     style="fill:#fff5f5;stroke-width:0.54237288" />
  <path
     d="m 349.18441,226.7444 c -7.10345,43.49505 -5.21872,31.94794 -8.8678,54.32407 -5.07118,31.05085 -34.3539,52.11119 -65.40474,47.04 -27.22549,-4.44474 -26.23513,-4.22183 -28.55594,-4.83254 -18.47322,-4.82712 -30.57897,-23.01831 -27.43864,-42.24 l 2.22915,-13.64068 c 1.99594,-12.2305 13.06577,-20.72407 25.20949,-19.72067 0.62915,0.0488 1.26373,0.12474 1.89289,0.22779 11.33559,1.84949 22.02576,-5.83593 23.87525,-17.17153 L 274.76,214.58983 c 3.02102,-18.49491 19.0156,-31.63661 37.16882,-31.63661 2.01762,0 4.06237,0.16271 6.12339,0.49898 20.5505,3.35729 34.48948,22.73627 31.1322,43.2922 z"
     id="path14"
     inkscape:connector-curvature="0"
     style="fill:#914d24;stroke-width:0.54237288" />
  <path
     d="m 349.18441,226.7444 c -7.10345,43.49505 -5.21872,31.94794 -8.8678,54.32407 -5.07118,31.05085 -34.3539,52.11119 -65.40474,47.04 -27.22549,-4.44474 -26.23513,-4.22183 -28.55594,-4.83254 v -75.60135 c 0.62915,0.0488 1.26373,0.12474 1.89289,0.22779 11.33559,1.84949 22.02576,-5.83593 23.87525,-17.17153 L 274.76,214.58983 c 3.02102,-18.49491 19.0156,-31.63661 37.16882,-31.63661 2.01762,0 4.06237,0.16271 6.12339,0.49898 20.5505,3.35729 34.48948,22.73627 31.1322,43.2922 z"
     id="path16"
     inkscape:connector-curvature="0"
     style="fill:#804231;stroke-width:0.54237288" />
  <path
     d="m 266.25234,284.6937 c -0.98821,-4.38292 1.76379,-8.73709 6.14671,-9.72584 l 26.83064,-5.72963 c 4.38509,-0.98603 8.73763,1.76435 9.72583,6.14726 0.98821,4.38291 -1.76379,8.73709 -6.1467,9.72583 l -26.83065,5.72963 c -4.38617,0.98766 -8.73817,-1.76489 -9.72583,-6.14725 z"
     id="path18"
     inkscape:connector-curvature="0"
     style="fill:#5b362a;stroke-width:0.54237288" />
  <path
     d="m 281.6156,251.76461 c -0.98821,-4.38291 1.76379,-8.73708 6.1467,-9.72583 l 23.6556,-5.33369 c 4.38454,-0.98604 8.73762,1.76433 9.72583,6.14725 0.9882,4.38291 -1.7638,8.73708 -6.14671,9.72583 l -23.65559,5.33369 c -4.38617,0.98767 -8.73763,-1.76488 -9.72583,-6.14725 z"
     id="path20"
     inkscape:connector-curvature="0"
     style="fill:#5b362a;stroke-width:0.54237288" />
  <circle
     cx="211.12773"
     cy="197.34239"
     r="26.20149"
     id="circle22"
     style="fill:#ff9f00;stroke-width:0.54237288" />
  <path
     d="m 164.86061,286.93478 c -4.31132,-1.26861 -8.83309,1.19647 -10.1017,5.50671 l -1.16718,3.96583 c -1.26861,4.31024 1.19701,8.83308 5.50725,10.10224 4.31458,1.26915 8.83417,-1.20081 10.1017,-5.50672 l 1.16719,-3.96583 c 1.26861,-4.31023 -1.19702,-8.83308 -5.50726,-10.10223 z"
     id="path24"
     inkscape:connector-curvature="0"
     style="fill:#ff6c6c;stroke-width:0.54237288" />
  <path
     d="m 190.42482,307.17667 c -4.31078,-1.26969 -8.83309,1.19648 -10.1017,5.50672 l -1.16719,3.96583 c -1.26861,4.31023 1.19702,8.83309 5.50725,10.10223 4.31458,1.26916 8.83417,-1.20081 10.1017,-5.5067 l 1.16719,-3.96583 c 1.26915,-4.31078 -1.19647,-8.83363 -5.50725,-10.10225 z"
     id="path26"
     inkscape:connector-curvature="0"
     style="fill:#ff0059;stroke-width:0.54237288" />
  <path
     d="m 207.41193,290.90061 -3.96528,-1.16719 c -4.31024,-1.26861 -8.83363,1.19648 -10.1017,5.50672 -1.26916,4.31023 1.19648,8.83308 5.50671,10.10223 l 3.9653,1.16719 c 4.31403,1.26915 8.83416,-1.19973 10.10169,-5.50672 1.26915,-4.31023 -1.19648,-8.83308 -5.50672,-10.10223 z"
     id="path28"
     inkscape:connector-curvature="0"
     style="fill:#ff6c6c;stroke-width:0.54237288" />
  <g
     id="g34"
     transform="matrix(0.54237288,0,0,0.54237288,108.05085,103.72881)"
     style="fill:#ff0059">
    <path
       d="m 144.822,344.325 c 7.274,-3.966 9.956,-13.076 5.991,-20.35 l -3.647,-6.691 c -3.965,-7.274 -13.077,-9.956 -20.35,-5.992 -7.274,3.966 -9.956,13.076 -5.991,20.35 l 3.647,6.691 c 3.964,7.271 13.072,9.958 20.35,5.992 z"
       id="path30"
       inkscape:connector-curvature="0" />
    <path
       d="m 108.372,295.212 c -4.152,-7.167 -13.329,-9.613 -20.498,-5.461 l -7.106,4.116 c -7.168,4.152 -9.613,13.33 -5.461,20.498 4.15,7.165 13.325,9.616 20.498,5.461 l 7.106,-4.116 c 7.168,-4.152 9.613,-13.33 5.461,-20.498 z"
       id="path32"
       inkscape:connector-curvature="0" />
  </g>
</svg>
