<?xml version="1.0" encoding="UTF-8" standalone="no"?>
<!-- Created with Inkscape (http://www.inkscape.org/) -->

<svg
   xmlns:dc="http://purl.org/dc/elements/1.1/"
   xmlns:cc="http://creativecommons.org/ns#"
   xmlns:rdf="http://www.w3.org/1999/02/22-rdf-syntax-ns#"
   xmlns:svg="http://www.w3.org/2000/svg"
   xmlns="http://www.w3.org/2000/svg"
   xmlns:sodipodi="http://sodipodi.sourceforge.net/DTD/sodipodi-0.dtd"
   xmlns:inkscape="http://www.inkscape.org/namespaces/inkscape"
   width="105mm"
   height="50mm"
   viewBox="0 0 105 50"
   version="1.1"
   id="SVGRoot"
   inkscape:version="0.92.4 (5da689c313, 2019-01-14)"
   sodipodi:docname="logo.svg">
  <defs
     id="defs1890" />
  <sodipodi:namedview
     id="base"
     pagecolor="#ffffff"
     bordercolor="#666666"
     borderopacity="1.0"
     inkscape:pageopacity="0.0"
     inkscape:pageshadow="2"
     inkscape:zoom="1.2901587"
     inkscape:cx="198.26481"
     inkscape:cy="94.440262"
     inkscape:document-units="mm"
     inkscape:current-layer="layer1"
     showgrid="false"
     inkscape:window-width="1296"
     inkscape:window-height="704"
     inkscape:window-x="70"
     inkscape:window-y="27"
     inkscape:window-maximized="1" />
  <metadata
     id="metadata1893">
    <rdf:RDF>
      <cc:Work
         rdf:about="">
        <dc:format>image/svg+xml</dc:format>
        <dc:type
           rdf:resource="http://purl.org/dc/dcmitype/StillImage" />
        <dc:title></dc:title>
      </cc:Work>
    </rdf:RDF>
  </metadata>
  <g
     inkscape:label="Camada 1"
     inkscape:groupmode="layer"
     id="layer1">
    <text
       transform="scale(1.0475522,0.95460637)"
       id="text15-0-3-6-3-3"
       y="34.289558"
       x="44.838924"
       style="font-style:normal;font-variant:normal;font-weight:300;font-stretch:normal;font-size:11.04803085px;line-height:1.25;font-family:'Fira Code';-inkscape-font-specification:'Fira Code, Light';font-variant-ligatures:normal;font-variant-caps:normal;font-variant-numeric:normal;font-feature-settings:normal;text-align:start;letter-spacing:0px;word-spacing:0px;writing-mode:lr-tb;text-anchor:start;fill:#000000;fill-opacity:1;stroke:none;stroke-width:0.04987342"
       xml:space="preserve"><tspan
         style="font-style:normal;font-variant:normal;font-weight:300;font-stretch:normal;font-size:5.06368208px;font-family:'Fira Code';-inkscape-font-specification:'Fira Code, Light';font-variant-ligatures:normal;font-variant-caps:normal;font-variant-numeric:normal;font-feature-settings:normal;text-align:start;writing-mode:lr-tb;text-anchor:start;fill:#808080;stroke-width:0.04987342"
         y="34.289558"
         x="44.838924"
         id="tspan13-34-5-94-6-6"
         sodipodi:role="line">Smart Choice</tspan></text>
    <text
       transform="scale(1.0475522,0.95460637)"
       id="text15-4-2-6-6-7-99-7-0"
       y="26.807528"
       x="44.605888"
       style="font-style:normal;font-variant:normal;font-weight:normal;font-stretch:normal;font-size:9.5756979px;line-height:1.25;font-family:'Fira Code';-inkscape-font-specification:'Fira Code, weight=450';font-variant-ligatures:normal;font-variant-caps:normal;font-variant-numeric:normal;font-feature-settings:normal;text-align:start;letter-spacing:0px;word-spacing:0px;writing-mode:lr-tb;text-anchor:start;fill:#000000;fill-opacity:1;stroke:none;stroke-width:0.04987342"
       xml:space="preserve"><tspan
         id="tspan216-7-0-7-3-5-6"
         style="font-style:normal;font-variant:normal;font-stretch:normal;font-size:9.5756979px;font-family:'Fira Code';-inkscape-font-specification:'Fira Code,  weight=450';font-variant-ligatures:normal;font-variant-caps:normal;font-variant-numeric:normal;font-feature-settings:normal;text-align:start;writing-mode:lr-tb;text-anchor:start;stroke-width:0.04987342"
         y="26.807528"
         x="44.605888"
         sodipodi:role="line"><tspan
   style="font-style:normal;font-variant:normal;font-stretch:normal;font-size:9.5756979px;font-family:'Fira Code';-inkscape-font-specification:'Fira Code, weight=450';font-variant-ligatures:normal;font-variant-caps:normal;font-variant-numeric:normal;font-feature-settings:normal;text-align:start;writing-mode:lr-tb;text-anchor:start;stroke-width:0.04987342"
   id="tspan260-8-9-98-3-2">Octopus </tspan>D</tspan></text>
    <g
       transform="matrix(0.81038727,0,0,0.79580589,-12.665795,-4.7181356)"
       style="fill:#ff0000"
       id="g1606-9-0-6">
      <path
         style="fill:#ff0000;stroke:none;stroke-width:0.05664655px;stroke-linecap:butt;stroke-linejoin:miter;stroke-opacity:1"
         d="m 74.286728,38.465307 -11.025445,-24.0448 -1.46381,3.062097 -5.876542,-10.5331622 c -1.499761,3.2506362 -2.002928,5.0148272 -1.936677,7.1171042 -0.01035,-0.377178 1.651778,-2.194186 1.936677,-2.286339 3.326068,9.096348 8.917988,17.243846 10.688765,26.750172 -2.989573,8.859539 -5.444234,15.742158 -9.270602,24.479196 l -3.042409,-1.753697 2.99942,6.497554 z"
         id="path487-0-3-6-2-3-2-0-3-10-7-1-9-1"
         inkscape:connector-curvature="0"
         sodipodi:nodetypes="ccccccccccc"
         transform="translate(-0.52916667,3.7195567e-6)" />
      <path
         style="fill:#ff0000;stroke:none;stroke-width:0.05585014px;stroke-linecap:butt;stroke-linejoin:miter;stroke-opacity:1"
         d="m 24.545063,38.400234 10.717605,-24.044798 1.422938,3.062097 5.712465,-10.5331623 c 1.457887,3.2506353 1.947006,5.0148273 1.882604,7.1171033 0.01006,-0.377178 -1.605659,-2.194186 -1.882604,-2.286339 -3.233201,9.096348 -8.66899,17.243845 -10.390324,26.750172 2.906101,8.859538 5.292226,15.742157 9.011757,24.479198 l 2.957463,-1.7537 -2.915674,6.497557 z"
         id="path487-3-1-1-1-6-2-1-7-1-07-5-2-3-8"
         inkscape:connector-curvature="0"
         sodipodi:nodetypes="ccccccccccc"
         transform="translate(-0.52916667,3.7195567e-6)" />
      <path
         sodipodi:nodetypes="cccccccccccccccccccccccscccccccccccccsscccccccccccscccssscccccccccccccccccccccssccsccsccccccccccccscscsccccccccccscsccsccccccccccccccc"
         inkscape:connector-curvature="0"
         id="path3720-6-9-0-1-0-9-7-0-10-5-7-6-7"
         d="m 46.03533,34.523099 c -0.790612,-1.448124 -1.241839,-2.988546 -1.007716,-4.715353 0.577822,-2.548473 1.840811,-4.35678 5.246053,-3.850874 3.251553,1.411498 3.042851,3.60537 2.99351,5.763211 -0.332861,0.957182 -0.480568,2.241666 -1.096633,2.698229 0.01328,0.869092 0.332526,1.36632 0.978077,1.467 1.242389,-0.840685 2.532795,-1.631858 4.242243,-1.990929 2.926961,-0.345885 5.233128,0.426716 6.112621,3.769776 0.0011,1.536375 0.452569,2.67492 -3.122705,7.372414 -3.122939,3.625458 -2.150874,5.191283 -2.22152,5.390388 0.326923,0.974376 1.07812,1.252324 2.095774,1.092895 0.539154,-0.481545 1.25533,-0.778837 0.943099,-2.315459 -0.148068,-0.520921 -0.46037,-0.735391 -0.964056,-0.592758 -0.350825,0.213915 -0.115328,0.578976 -0.02095,0.907661 l -0.08383,0.09262 c -0.191549,-0.276277 -0.366536,-0.676676 -0.218255,-0.929552 0.172226,-0.255829 0.472648,-0.404132 1.056567,-0.200393 0.35498,0.344148 0.706006,0.695874 0.482028,2.148746 -0.679534,1.439821 -1.650875,1.39662 -2.640674,1.259608 -0.782666,-0.705905 -1.525384,-0.871368 -1.236508,-3.630638 0.476495,-1.471407 1.567728,-3.078651 2.661632,-4.686485 l 1.97003,-3.315734 c 0.129853,-1.198411 0.513384,-3.575657 -2.200566,-4.538299 -2.214472,-0.47536 -5.944484,1.250795 -5.171474,1.733009 2.234422,1.393851 3.913952,2.391564 3.494855,6.472972 -0.492161,2.03204 -1.436124,3.265421 -2.305352,4.630918 -0.579079,1.178241 -1.764253,1.899488 -1.215548,4.66796 0.505622,1.410486 1.679744,1.373197 2.347269,1.185516 0.329697,-0.372353 0.751238,-0.762489 0.502987,-1.593033 -0.159874,-0.28301 -0.28063,-0.699502 -1.005975,-0.685377 -0.136143,0.04638 -0.167298,0.185557 -0.125746,0.388997 h -0.188619 c 0.01518,-0.252889 -0.113937,-0.756882 0.922139,-0.518662 0.233463,0.07308 0.982109,0.539916 0.691607,1.722698 -0.200929,0.938126 -0.830706,1.48096 -2.410139,1.148468 -1.914118,-1.17905 -1.689551,-3.347642 -1.634706,-3.889969 0.382912,-2.103816 2.471142,-5.089527 2.787381,-6.242474 1.656552,-4.994376 -5.017532,-6.095961 -3.238279,-5.287459 0.81769,0.371562 1.814251,3.683775 1.476773,5.512921 -0.209618,1.136156 -1.13332,3.385035 -2.052803,5.646538 -0.176378,0.563195 -0.475892,1.935887 0.04192,3.056407 0.400672,1.104008 1.673953,1.772087 1.194591,3.315734 -0.431032,0.824293 -1.145708,0.561369 -1.383213,0.481616 -0.242934,-0.185427 -0.808753,-0.738839 0.02095,-1.593036 l 0.129343,0.108799 c -0.280643,0.206819 -0.419705,0.558967 -0.192216,1.076714 0.357265,0.307641 0.687025,0.299291 0.985015,-0.07409 0.246808,-0.560385 -0.125748,-1.129943 -0.125748,-1.129943 -0.647132,-0.836929 -1.292106,-1.673221 -1.529914,-2.389553 -0.688152,-3.287075 0.417672,-5.451001 0.964056,-7.965174 0.829839,-2.329363 -1.580248,-4.886861 -1.227826,-3.626687 0.977045,3.493695 -1.782167,5.728082 -1.695779,5.756908 0.01053,1.000665 -0.653107,1.704839 -0.802358,1.646901 -0.260275,-0.122823 -0.314358,1.51894 -0.02227,1.671486 0.154222,-0.09841 0.354499,-1.353394 0.03442,-1.685412 -0.386253,-0.40066 0.295254,-1.294272 0.643183,-1.523441 0.143356,-0.09442 0.149148,0.248246 0.150225,0.252654 0.148512,0.608014 0.837005,1.840426 -0.181308,3.879732 v 0.55571 c 0.772322,1.631103 2.001315,3.087665 1.404167,5.242193 -0.408652,1.455928 -1.265842,1.203037 -1.718532,1.241085 -0.149435,-0.152054 -0.732253,-0.782154 0.209578,-1.500417 l 0.08383,0.203761 c -0.357236,0.262868 -0.527082,0.558861 -0.293406,0.926184 0.613863,0.327788 1.161098,-0.400419 1.257464,-0.592758 0.06744,-0.510765 0.183413,-1.45619 0.02095,-1.759746 -0.124618,-0.902384 -0.655355,-2.110039 -1.592789,-3.260166 -0.745419,0.862702 -1.436925,1.791383 -1.823324,3.093453 -0.12183,0.575962 -0.07227,1.227668 -0.04192,1.870888 0.153766,0.818188 0.818001,1.066818 1.205071,0.889136 0.0103,0.02727 0.654443,-0.711949 -0.261972,-0.974806 l -0.120507,-0.148191 c 0.323421,-0.03878 1.076001,0.08583 0.749239,1.067426 -0.200249,0.441709 -1.257465,0.222284 -1.257465,0.222284 -0.453647,-0.32389 -1.089418,-1.303869 -0.73352,-3.130498 0.4072,-1.28195 0.863502,-2.526164 1.718536,-3.463924 v -0.444572 c -0.84002,-1.332462 -0.958238,-2.756303 -0.237775,-3.785377 0.01992,-0.139624 -0.0038,-0.264052 -0.0028,-0.47759 2.36e-4,-0.05054 0.28487,-0.05426 0.307396,-0.09825 2.408976,-4.704676 0.816008,-5.581072 0.614243,-6.391768 -1.229416,1.672974 -1.103864,4.020807 -0.125746,5.158838 -0.01308,0.02868 0.251626,-0.298573 0.251626,-0.298573 1.244192,-0.06838 -0.580808,2.322498 -1.079472,1.613754 -0.874621,-0.926182 -1.239661,-1.852366 -1.613746,-2.77855 0,0 -0.192431,-1.771595 0.22545,-3.390376 0.220215,-0.853063 -1.298936,0.645722 -1.545787,1.686199 0,0 -0.269882,1.579104 0.06287,2.722978 0.540033,2.154383 1.172216,4.318945 0.796394,6.372141 -0.02083,1.16699 -0.9365,2.333981 -2.011943,3.50097 -0.10873,0.460402 -0.08406,0.802894 0.08383,1.018803 0.206274,0.158657 0.447811,0.271479 0.985014,0 0.122291,-0.637963 -0.04209,-0.864189 -0.230535,-1.055849 h 0.125746 c 0.201232,0.131426 0.400903,0.266648 0.293409,1.148465 -0.235598,0.286274 -0.54049,0.507075 -1.341296,0.259332 -0.55937,-1.007544 -0.331558,-1.398852 -0.230535,-1.889413 0.725471,-1.247617 1.845278,-2.067993 1.425127,-4.556821 -0.433118,-1.719788 -1.088425,-3.283368 -1.61219,-4.677043 -0.511886,-1.362067 -0.335847,-2.739377 -0.211134,-3.788268 0.209982,-1.364217 0.842154,-1.968363 1.575426,-2.811648 1.091462,-1.255214 -3.337846,0.409801 -3.89688,2.820937 -0.265601,1.508857 0.285445,3.075681 1.202942,4.602422 0.75679,1.259318 1.555421,2.522557 1.775749,3.649449 0.717695,2.668931 -0.484966,3.468344 -1.644949,4.309311 -1.797012,0.187948 -2.229826,-0.823588 -2.326639,-1.021663 -0.09565,-0.806809 0.164448,-1.381204 0.711329,-1.768255 0.315026,-0.09142 0.625204,-0.117316 1.111452,0.13098 l -0.04446,0.170276 c -0.992187,-0.435463 -1.05505,0.03544 -1.274465,0.353651 -0.302049,1.30469 0.261079,1.423155 0.474219,1.584885 0.562134,0.07343 1.134585,0.160031 1.452298,-0.07859 1.217417,-1.025203 1.238336,-2.147376 0.874342,-3.300747 -0.582035,-1.580601 -1.48042,-2.541317 -2.268428,-3.652477 -0.678625,-0.956918 -1.160899,-2.035426 -1.436412,-3.341965 -0.914326,-3.510604 1.882746,-5.902413 3.512189,-6.627692 0.588747,-0.262054 -2.732727,-2.597273 -5.171957,-1.650374 -1.887762,0.546091 -2.392331,2.070222 -2.311821,4.008053 0.430686,1.433217 1.288935,2.714006 2.277413,3.976428 0.978285,1.249403 1.955005,2.782962 2.52406,4.615994 0.254056,2.766196 -1.217584,3.508793 -1.452297,3.588907 -1.104851,0.05406 -2.280888,-0.172449 -2.608208,-1.624177 -0.139485,-1.681749 0.723358,-2.269911 1.452297,-1.912337 0.303933,0.107364 0.354247,0.49493 0.444581,0.838284 h -0.237101 c -0.136004,-0.90025 -0.571655,-0.765192 -1.007717,-0.628713 -0.521789,0.731365 -0.401142,1.326453 -0.23711,1.912339 0.46305,0.604403 1.106331,1.277187 2.163627,0.838284 2.426565,-2.598116 -0.644026,-5.247322 -1.886375,-7.209489 -1.17156,-1.482822 -2.133364,-2.844119 -2.677986,-4.26454 -0.449328,-5.024839 2.897701,-5.882814 3.586286,-6.182352 3.600201,-0.45764 5.059936,0.97659 6.93546,2.043319 0.533825,0.133774 0.92395,-0.0024 0.829891,-1.047856 z"
         style="fill:#ff0000;stroke:none;stroke-width:0.05664655px;stroke-linecap:butt;stroke-linejoin:miter;stroke-opacity:1" />
    </g>
  </g>
</svg>
